# xmcd
#
# Track frame offsets:
#	182
#	10132
#	16415
#	23930
#	42492
#	58497
#	75767
#	92087
#	110877
#	121675
#	134242
#	146395
#	161135
#	180520
#	198010
#	213027
#	227302
#	236682
#	253660
#	258627
#
# Disc length: 3596
#
# Revision: 1
# Processed by: cddbd v1.5.1PL0 Copyright (c) Steve Scherf et al.
# Submitted via: dBpowerAMP V4.0
# Normalized: r0:DSETVAR1,TDELIM( - )
#
DISCID=0e0e0a14
DTITLE=Various Artist - HomeTown Country Christmas
DYEAR=1994
DGENRE=Country
TTITLE0=George Strait - Santa Claus is comin - to town
TTITLE1=Kenny Rogers - Away in a manger
TTITLE2=Kenny Rogers - O little town of bethlehem
TTITLE3=Tanya Tucker - What chlid is this
TTITLE4=Lee Greenwood - the greatest gift of all
TTITLE5=Restless heart - The little drummer boy
TTITLE6=Deborah Allen - rockin' Little christmas
TTITLE7=Crhstal Gayle - silver bells
TTITLE8=Branda lee - frosty the snowman
TTITLE9=Randy Travis - how do i wrap my heart up for christmas
TTITLE10=Dwight Yoakam - santa claus is back in town
TTITLE11=Ronnie Milsap - Ill be home for christmas
TTITLE12=Steve Wariner - tennessee christmas
TTITLE13=Dolly Parton - Hard candy christmas
TTITLE14=Lee Greenwood - when the rain turns to snow
TTITLE15=The Forster sisters - silent night
TTITLE16=Chet atkins and his guitar - Jingle bells
TTITLE17=Lorrie Morgan - My favorite things
TTITLE18=Nashvill children's Chorus - Jolly ol' st. nicholas
TTITLE19=Brenda Lee - go tell it on the mountain
EXTD=
EXTT0=
EXTT1=
EXTT2=
EXTT3=
EXTT4=
EXTT5=
EXTT6=
EXTT7=
EXTT8=
EXTT9=
EXTT10=
EXTT11=
EXTT12=
EXTT13=
EXTT14=
EXTT15=
EXTT16=
EXTT17=
EXTT18=
EXTT19=
PLAYORDER=
